<?xml version="1.0" standalone="no"?><svg xmlns="http://www.w3.org/2000/svg" viewBox="0 0 1440 320"><path fill="#00cba9" fill-opacity="1" d="M0,288L34.3,277.3C68.6,267,137,245,206,229.3C274.3,213,343,203,411,213.3C480,224,549,256,617,266.7C685.7,277,754,267,823,224C891.4,181,960,107,1029,90.7C1097.1,75,1166,117,1234,138.7C1302.9,160,1371,160,1406,160L1440,160L1440,0L1405.7,0C1371.4,0,1303,0,1234,0C1165.7,0,1097,0,1029,0C960,0,891,0,823,0C754.3,0,686,0,617,0C548.6,0,480,0,411,0C342.9,0,274,0,206,0C137.1,0,69,0,34,0L0,0Z"></path></svg>